<svg width="449" height="255" viewBox="0 0 449 255" fill="none" xmlns="http://www.w3.org/2000/svg">
<rect width="449" height="255" rx="4" fill="white"/>
<path d="M180.557 26.3643V24.8182H188.68V26.3643H185.533V35H183.704V26.3643H180.557ZM192.58 35.1491C191.815 35.1491 191.153 34.9901 190.596 34.6719C190.043 34.3504 189.617 33.8963 189.319 33.3097C189.021 32.7197 188.871 32.0253 188.871 31.2266C188.871 30.4411 189.021 29.7517 189.319 29.1584C189.62 28.5618 190.041 28.0978 190.582 27.7663C191.122 27.4316 191.757 27.2642 192.486 27.2642C192.956 27.2642 193.4 27.3404 193.818 27.4929C194.239 27.642 194.61 27.8741 194.932 28.1889C195.257 28.5038 195.512 28.9048 195.697 29.392C195.883 29.8759 195.976 30.4527 195.976 31.1222V31.674H189.717V30.4609H194.251C194.247 30.1162 194.173 29.8097 194.027 29.5412C193.881 29.2694 193.677 29.0556 193.415 28.8999C193.157 28.7441 192.855 28.6662 192.511 28.6662C192.143 28.6662 191.82 28.7557 191.541 28.9347C191.263 29.1103 191.046 29.3423 190.89 29.6307C190.737 29.9157 190.659 30.2289 190.656 30.5703V31.6293C190.656 32.0734 190.737 32.4545 190.9 32.7727C191.062 33.0876 191.289 33.3295 191.581 33.4986C191.873 33.6643 192.214 33.7472 192.605 33.7472C192.867 33.7472 193.104 33.7107 193.316 33.6378C193.528 33.5616 193.712 33.4505 193.868 33.3047C194.024 33.1589 194.141 32.9782 194.221 32.7628L195.901 32.9517C195.795 33.3958 195.593 33.7836 195.295 34.1151C195 34.4432 194.622 34.6984 194.161 34.8807C193.7 35.0597 193.173 35.1491 192.58 35.1491ZM197.638 35V27.3636H199.358V28.6612H199.448C199.607 28.2237 199.871 27.8823 200.238 27.6371C200.606 27.3885 201.046 27.2642 201.556 27.2642C202.073 27.2642 202.509 27.3902 202.863 27.642C203.221 27.8906 203.473 28.2304 203.619 28.6612H203.699C203.868 28.237 204.153 27.8989 204.554 27.647C204.958 27.3918 205.437 27.2642 205.991 27.2642C206.693 27.2642 207.267 27.4863 207.711 27.9304C208.155 28.3745 208.377 29.0225 208.377 29.8743V35H206.572V30.1527C206.572 29.6787 206.446 29.3324 206.194 29.1136C205.943 28.8916 205.634 28.7805 205.27 28.7805C204.836 28.7805 204.496 28.9164 204.251 29.1882C204.009 29.4567 203.888 29.8063 203.888 30.2372V35H202.123V30.0781C202.123 29.6837 202.003 29.3688 201.765 29.1335C201.529 28.8982 201.221 28.7805 200.84 28.7805C200.581 28.7805 200.346 28.8468 200.134 28.9794C199.922 29.1087 199.753 29.2926 199.627 29.5312C199.501 29.7666 199.438 30.0417 199.438 30.3565V35H197.638ZM210.343 37.8636V27.3636H212.113V28.6264H212.217C212.31 28.4408 212.441 28.2436 212.61 28.0348C212.779 27.8227 213.008 27.642 213.296 27.4929C213.584 27.3404 213.952 27.2642 214.4 27.2642C214.99 27.2642 215.522 27.415 215.995 27.7166C216.473 28.0149 216.851 28.4574 217.129 29.044C217.411 29.6274 217.552 30.3433 217.552 31.1918C217.552 32.0303 217.414 32.7429 217.139 33.3295C216.864 33.9162 216.489 34.3636 216.015 34.6719C215.541 34.9801 215.004 35.1342 214.405 35.1342C213.967 35.1342 213.604 35.0613 213.316 34.9155C213.027 34.7696 212.795 34.594 212.62 34.3885C212.447 34.1797 212.313 33.9825 212.217 33.7969H212.142V37.8636H210.343ZM212.108 31.1818C212.108 31.6757 212.177 32.1082 212.316 32.4794C212.459 32.8506 212.663 33.1406 212.928 33.3494C213.196 33.5549 213.521 33.6577 213.902 33.6577C214.3 33.6577 214.633 33.5516 214.902 33.3395C215.17 33.1241 215.372 32.8307 215.508 32.4595C215.647 32.085 215.717 31.6591 215.717 31.1818C215.717 30.7079 215.649 30.2869 215.513 29.919C215.377 29.5511 215.175 29.2628 214.907 29.054C214.638 28.8452 214.303 28.7408 213.902 28.7408C213.518 28.7408 213.191 28.8419 212.923 29.044C212.655 29.2462 212.451 29.5296 212.312 29.8942C212.176 30.2588 212.108 30.688 212.108 31.1818ZM222.613 35.1491C221.848 35.1491 221.187 34.9901 220.63 34.6719C220.076 34.3504 219.65 33.8963 219.352 33.3097C219.054 32.7197 218.905 32.0253 218.905 31.2266C218.905 30.4411 219.054 29.7517 219.352 29.1584C219.654 28.5618 220.075 28.0978 220.615 27.7663C221.155 27.4316 221.79 27.2642 222.519 27.2642C222.99 27.2642 223.434 27.3404 223.851 27.4929C224.272 27.642 224.644 27.8741 224.965 28.1889C225.29 28.5038 225.545 28.9048 225.731 29.392C225.916 29.8759 226.009 30.4527 226.009 31.1222V31.674H219.75V30.4609H224.284C224.281 30.1162 224.206 29.8097 224.06 29.5412C223.914 29.2694 223.711 29.0556 223.449 28.8999C223.19 28.7441 222.889 28.6662 222.544 28.6662C222.176 28.6662 221.853 28.7557 221.574 28.9347C221.296 29.1103 221.079 29.3423 220.923 29.6307C220.771 29.9157 220.693 30.2289 220.689 30.5703V31.6293C220.689 32.0734 220.771 32.4545 220.933 32.7727C221.095 33.0876 221.322 33.3295 221.614 33.4986C221.906 33.6643 222.247 33.7472 222.638 33.7472C222.9 33.7472 223.137 33.7107 223.349 33.6378C223.561 33.5616 223.745 33.4505 223.901 33.3047C224.057 33.1589 224.175 32.9782 224.254 32.7628L225.934 32.9517C225.828 33.3958 225.626 33.7836 225.328 34.1151C225.033 34.4432 224.655 34.6984 224.194 34.8807C223.734 35.0597 223.207 35.1491 222.613 35.1491ZM227.672 35V27.3636H229.417V28.6364H229.496C229.635 28.1955 229.874 27.8558 230.212 27.6172C230.553 27.3752 230.943 27.2543 231.38 27.2543C231.48 27.2543 231.591 27.2592 231.713 27.2692C231.839 27.2758 231.944 27.2874 232.027 27.304V28.9595C231.95 28.933 231.829 28.9098 231.664 28.8899C231.501 28.8667 231.344 28.8551 231.191 28.8551C230.863 28.8551 230.568 28.9264 230.307 29.0689C230.048 29.2081 229.844 29.402 229.695 29.6506C229.546 29.8991 229.471 30.1858 229.471 30.5107V35H227.672ZM235.423 35.1541C234.939 35.1541 234.503 35.0679 234.116 34.8956C233.731 34.7199 233.426 34.4614 233.201 34.12C232.979 33.7786 232.868 33.3577 232.868 32.8572C232.868 32.4264 232.947 32.0701 233.106 31.7884C233.265 31.5066 233.483 31.2812 233.758 31.1122C234.033 30.9432 234.343 30.8156 234.687 30.7294C235.035 30.6399 235.395 30.5753 235.766 30.5355C236.214 30.4891 236.577 30.4477 236.855 30.4112C237.133 30.3714 237.336 30.3118 237.461 30.2322C237.591 30.1494 237.655 30.0218 237.655 29.8494V29.8196C237.655 29.4451 237.544 29.1551 237.322 28.9496C237.1 28.7441 236.78 28.6413 236.363 28.6413C235.922 28.6413 235.572 28.7375 235.314 28.9297C235.059 29.1219 234.886 29.349 234.797 29.6108L233.116 29.3722C233.249 28.9081 233.468 28.5204 233.773 28.2088C234.077 27.8939 234.45 27.6586 234.891 27.5028C235.332 27.3438 235.819 27.2642 236.353 27.2642C236.721 27.2642 237.087 27.3073 237.452 27.3935C237.816 27.4796 238.149 27.6222 238.451 27.821C238.752 28.0166 238.994 28.2834 239.177 28.6214C239.362 28.9595 239.455 29.3821 239.455 29.8892V35H237.725V33.951H237.665C237.556 34.1631 237.402 34.362 237.203 34.5476C237.007 34.7299 236.76 34.8774 236.462 34.9901C236.167 35.0994 235.821 35.1541 235.423 35.1541ZM235.89 33.8317C236.252 33.8317 236.565 33.7604 236.83 33.6179C237.095 33.4721 237.299 33.2798 237.442 33.0412C237.587 32.8026 237.66 32.5424 237.66 32.2607V31.3608C237.604 31.4072 237.508 31.4503 237.372 31.4901C237.239 31.5298 237.09 31.5646 236.925 31.5945C236.759 31.6243 236.595 31.6508 236.432 31.674C236.27 31.6972 236.129 31.7171 236.01 31.7337C235.741 31.7701 235.501 31.8298 235.289 31.9126C235.077 31.9955 234.909 32.1115 234.787 32.2607C234.664 32.4065 234.603 32.5954 234.603 32.8274C234.603 33.1589 234.724 33.4091 234.966 33.5781C235.208 33.7472 235.516 33.8317 235.89 33.8317ZM245.218 27.3636V28.7557H240.828V27.3636H245.218ZM241.912 25.5341H243.712V32.7031C243.712 32.9451 243.748 33.1307 243.821 33.2599C243.897 33.3859 243.997 33.4721 244.119 33.5185C244.242 33.5649 244.378 33.5881 244.527 33.5881C244.64 33.5881 244.742 33.5798 244.835 33.5632C244.931 33.5466 245.004 33.5317 245.054 33.5185L245.357 34.9254C245.261 34.9586 245.123 34.995 244.944 35.0348C244.769 35.0746 244.553 35.0978 244.298 35.1044C243.847 35.1177 243.441 35.0497 243.08 34.9006C242.719 34.7481 242.432 34.5128 242.22 34.1946C242.011 33.8764 241.909 33.4787 241.912 33.0014V25.5341ZM251.73 31.7884V27.3636H253.53V35H251.785V33.6428H251.705C251.533 34.0703 251.25 34.42 250.855 34.6918C250.464 34.9635 249.982 35.0994 249.409 35.0994C248.908 35.0994 248.466 34.9884 248.081 34.7663C247.7 34.541 247.402 34.2145 247.186 33.7869C246.971 33.3561 246.863 32.8357 246.863 32.2259V27.3636H248.663V31.9474C248.663 32.4313 248.795 32.8158 249.061 33.1009C249.326 33.3859 249.674 33.5284 250.105 33.5284C250.37 33.5284 250.627 33.4638 250.875 33.3345C251.124 33.2053 251.328 33.013 251.487 32.7578C251.649 32.4993 251.73 32.1761 251.73 31.7884ZM255.521 35V27.3636H257.266V28.6364H257.345C257.484 28.1955 257.723 27.8558 258.061 27.6172C258.403 27.3752 258.792 27.2543 259.229 27.2543C259.329 27.2543 259.44 27.2592 259.563 27.2692C259.689 27.2758 259.793 27.2874 259.876 27.304V28.9595C259.8 28.933 259.679 28.9098 259.513 28.8899C259.35 28.8667 259.193 28.8551 259.041 28.8551C258.712 28.8551 258.417 28.9264 258.156 29.0689C257.897 29.2081 257.693 29.402 257.544 29.6506C257.395 29.8991 257.32 30.1858 257.32 30.5107V35H255.521ZM264.278 35.1491C263.512 35.1491 262.851 34.9901 262.294 34.6719C261.74 34.3504 261.315 33.8963 261.016 33.3097C260.718 32.7197 260.569 32.0253 260.569 31.2266C260.569 30.4411 260.718 29.7517 261.016 29.1584C261.318 28.5618 261.739 28.0978 262.279 27.7663C262.819 27.4316 263.454 27.2642 264.183 27.2642C264.654 27.2642 265.098 27.3404 265.516 27.4929C265.937 27.642 266.308 27.8741 266.629 28.1889C266.954 28.5038 267.209 28.9048 267.395 29.392C267.58 29.8759 267.673 30.4527 267.673 31.1222V31.674H261.414V30.4609H265.948C265.945 30.1162 265.87 29.8097 265.724 29.5412C265.579 29.2694 265.375 29.0556 265.113 28.8999C264.854 28.7441 264.553 28.6662 264.208 28.6662C263.84 28.6662 263.517 28.7557 263.239 28.9347C262.96 29.1103 262.743 29.3423 262.587 29.6307C262.435 29.9157 262.357 30.2289 262.354 30.5703V31.6293C262.354 32.0734 262.435 32.4545 262.597 32.7727C262.76 33.0876 262.987 33.3295 263.278 33.4986C263.57 33.6643 263.911 33.7472 264.303 33.7472C264.564 33.7472 264.801 33.7107 265.013 33.6378C265.226 33.5616 265.41 33.4505 265.565 33.3047C265.721 33.1589 265.839 32.9782 265.918 32.7628L267.599 32.9517C267.493 33.3958 267.29 33.7836 266.992 34.1151C266.697 34.4432 266.319 34.6984 265.859 34.8807C265.398 35.0597 264.871 35.1491 264.278 35.1491Z" fill="#5D6A7E"/>
<rect x="43" y="79" width="363" height="1" fill="#D9D9D9"/>
<rect x="43" y="93" width="363" height="1" fill="#D9D9D9"/>
<rect x="43" y="107" width="363" height="1" fill="#D9D9D9"/>
<rect x="43" y="121" width="363" height="1" fill="#D9D9D9"/>
<rect x="43" y="135" width="363" height="1" fill="#D9D9D9"/>
<rect x="43" y="149" width="363" height="1" fill="#D9D9D9"/>
<rect x="43" y="163" width="363" height="1" fill="#D9D9D9"/>
<rect x="43" y="177" width="363" height="1" fill="#D9D9D9"/>
<rect x="43" y="191" width="363" height="1" fill="#D9D9D9"/>
<rect x="43" y="205" width="363" height="1" fill="#D9D9D9"/>
<rect x="43" y="219" width="363" height="1" fill="#D9D9D9"/>
<path d="M43.7173 227.727H45.3295L47.4886 232.997H47.5739L49.733 227.727H51.3452V235H50.081V230.004H50.0135L48.0036 234.979H47.0589L45.049 229.993H44.9815V235H43.7173V227.727Z" fill="#5D6A7E"/>
<path d="M111.398 228.832V227.727H117.2V228.832H114.952V235H113.646V228.832H111.398Z" fill="#5D6A7E"/>
<path d="M178.248 235L176.195 227.727H177.612L178.923 233.072H178.99L180.389 227.727H181.678L183.081 233.075H183.145L184.455 227.727H185.872L183.82 235H182.52L181.064 229.897H181.007L179.548 235H178.248Z" fill="#5D6A7E"/>
<path d="M245.398 228.832V227.727H251.2V228.832H248.952V235H247.646V228.832H245.398Z" fill="#5D6A7E"/>
<path d="M314.67 229.727C314.637 229.416 314.497 229.175 314.251 229.002C314.007 228.829 313.69 228.743 313.299 228.743C313.024 228.743 312.789 228.784 312.592 228.867C312.396 228.95 312.246 229.062 312.141 229.205C312.037 229.347 311.984 229.509 311.982 229.691C311.982 229.843 312.016 229.974 312.085 230.085C312.156 230.196 312.251 230.291 312.372 230.369C312.493 230.445 312.627 230.509 312.773 230.561C312.92 230.613 313.068 230.657 313.217 230.692L313.899 230.863C314.174 230.927 314.438 231.013 314.691 231.122C314.947 231.231 315.175 231.368 315.376 231.534C315.58 231.7 315.741 231.9 315.859 232.134C315.978 232.369 316.037 232.643 316.037 232.958C316.037 233.384 315.928 233.759 315.71 234.084C315.492 234.406 315.178 234.658 314.766 234.84C314.356 235.02 313.86 235.11 313.278 235.11C312.712 235.11 312.221 235.022 311.804 234.847C311.39 234.672 311.065 234.416 310.831 234.08C310.599 233.744 310.473 233.335 310.455 232.852H311.751C311.77 233.105 311.848 233.316 311.985 233.484C312.122 233.652 312.301 233.777 312.521 233.86C312.744 233.943 312.992 233.984 313.267 233.984C313.554 233.984 313.804 233.942 314.02 233.857C314.238 233.769 314.408 233.648 314.531 233.494C314.654 233.338 314.717 233.156 314.719 232.947C314.717 232.758 314.661 232.602 314.553 232.479C314.444 232.353 314.291 232.249 314.094 232.166C313.9 232.081 313.673 232.005 313.413 231.939L312.585 231.726C311.986 231.572 311.513 231.339 311.165 231.026C310.819 230.711 310.646 230.294 310.646 229.773C310.646 229.344 310.762 228.969 310.994 228.647C311.229 228.325 311.547 228.075 311.95 227.898C312.352 227.718 312.808 227.628 313.317 227.628C313.833 227.628 314.285 227.718 314.673 227.898C315.064 228.075 315.371 228.323 315.593 228.64C315.816 228.955 315.93 229.317 315.938 229.727H314.67Z" fill="#5D6A7E"/>
<path d="M379.67 229.727C379.637 229.416 379.497 229.175 379.251 229.002C379.007 228.829 378.69 228.743 378.299 228.743C378.024 228.743 377.789 228.784 377.592 228.867C377.396 228.95 377.246 229.062 377.141 229.205C377.037 229.347 376.984 229.509 376.982 229.691C376.982 229.843 377.016 229.974 377.085 230.085C377.156 230.196 377.251 230.291 377.372 230.369C377.493 230.445 377.627 230.509 377.773 230.561C377.92 230.613 378.068 230.657 378.217 230.692L378.899 230.863C379.174 230.927 379.438 231.013 379.691 231.122C379.947 231.231 380.175 231.368 380.376 231.534C380.58 231.7 380.741 231.9 380.859 232.134C380.978 232.369 381.037 232.643 381.037 232.958C381.037 233.384 380.928 233.759 380.71 234.084C380.492 234.406 380.178 234.658 379.766 234.84C379.356 235.02 378.86 235.11 378.278 235.11C377.712 235.11 377.221 235.022 376.804 234.847C376.39 234.672 376.065 234.416 375.831 234.08C375.599 233.744 375.473 233.335 375.455 232.852H376.751C376.77 233.105 376.848 233.316 376.985 233.484C377.122 233.652 377.301 233.777 377.521 233.86C377.744 233.943 377.992 233.984 378.267 233.984C378.554 233.984 378.804 233.942 379.02 233.857C379.238 233.769 379.408 233.648 379.531 233.494C379.654 233.338 379.717 233.156 379.719 232.947C379.717 232.758 379.661 232.602 379.553 232.479C379.444 232.353 379.291 232.249 379.094 232.166C378.9 232.081 378.673 232.005 378.413 231.939L377.585 231.726C376.986 231.572 376.513 231.339 376.165 231.026C375.819 230.711 375.646 230.294 375.646 229.773C375.646 229.344 375.762 228.969 375.994 228.647C376.229 228.325 376.547 228.075 376.95 227.898C377.352 227.718 377.808 227.628 378.317 227.628C378.833 227.628 379.285 227.718 379.673 227.898C380.064 228.075 380.371 228.323 380.593 228.64C380.816 228.955 380.93 229.317 380.938 229.727H379.67Z" fill="#5D6A7E"/>
<path d="M24.3345 224.138C23.7498 224.138 23.2479 223.991 22.8288 223.695C22.4122 223.396 22.0914 222.967 21.8665 222.406C21.6439 221.842 21.5327 221.164 21.5327 220.371C21.535 219.578 21.6475 218.903 21.87 218.347C22.0949 217.788 22.4157 217.362 22.8324 217.068C23.2514 216.775 23.7521 216.628 24.3345 216.628C24.9169 216.628 25.4176 216.775 25.8366 217.068C26.2557 217.362 26.5765 217.788 26.799 218.347C27.0239 218.905 27.1364 219.58 27.1364 220.371C27.1364 221.166 27.0239 221.846 26.799 222.409C26.5765 222.97 26.2557 223.399 25.8366 223.695C25.42 223.991 24.9193 224.138 24.3345 224.138ZM24.3345 223.027C24.7891 223.027 25.1477 222.803 25.4105 222.356C25.6757 221.906 25.8082 221.244 25.8082 220.371C25.8082 219.793 25.7479 219.308 25.6271 218.915C25.5064 218.522 25.3359 218.226 25.1158 218.027C24.8956 217.826 24.6352 217.725 24.3345 217.725C23.8823 217.725 23.5249 217.95 23.2621 218.4C22.9993 218.847 22.8667 219.504 22.8643 220.371C22.862 220.951 22.92 221.438 23.0384 221.834C23.1591 222.229 23.3295 222.527 23.5497 222.729C23.7699 222.928 24.0315 223.027 24.3345 223.027Z" fill="#5D6A7E"/>
<path d="M24.6044 201.727V209H23.2869V203.009H23.2443L21.5433 204.096V202.888L23.3509 201.727H24.6044ZM29.2392 209.138C28.6545 209.138 28.1526 208.991 27.7335 208.695C27.3169 208.396 26.9961 207.967 26.7712 207.406C26.5486 206.842 26.4374 206.164 26.4374 205.371C26.4397 204.578 26.5522 203.903 26.7747 203.347C26.9996 202.788 27.3204 202.362 27.7371 202.068C28.1561 201.775 28.6568 201.628 29.2392 201.628C29.8216 201.628 30.3223 201.775 30.7413 202.068C31.1604 202.362 31.4812 202.788 31.7037 203.347C31.9286 203.905 32.0411 204.58 32.0411 205.371C32.0411 206.166 31.9286 206.846 31.7037 207.409C31.4812 207.97 31.1604 208.399 30.7413 208.695C30.3247 208.991 29.824 209.138 29.2392 209.138ZM29.2392 208.027C29.6938 208.027 30.0524 207.803 30.3152 207.356C30.5804 206.906 30.7129 206.244 30.7129 205.371C30.7129 204.793 30.6526 204.308 30.5318 203.915C30.4111 203.522 30.2406 203.226 30.0205 203.027C29.8003 202.826 29.5399 202.725 29.2392 202.725C28.787 202.725 28.4295 202.95 28.1668 203.4C27.904 203.847 27.7714 204.504 27.769 205.371C27.7667 205.951 27.8247 206.438 27.943 206.834C28.0638 207.229 28.2342 207.527 28.4544 207.729C28.6746 207.928 28.9362 208.027 29.2392 208.027Z" fill="#5D6A7E"/>
<path d="M21.6463 195V194.048L24.1712 191.573C24.4126 191.329 24.6139 191.113 24.7749 190.923C24.9358 190.734 25.0566 190.55 25.1371 190.373C25.2176 190.195 25.2578 190.006 25.2578 189.805C25.2578 189.575 25.2057 189.379 25.1016 189.215C24.9974 189.049 24.8542 188.922 24.6719 188.832C24.4896 188.742 24.2824 188.697 24.0504 188.697C23.8113 188.697 23.6018 188.746 23.4219 188.846C23.242 188.943 23.1023 189.081 23.0028 189.261C22.9058 189.441 22.8572 189.656 22.8572 189.904H21.6037C21.6037 189.442 21.709 189.041 21.9197 188.7C22.1304 188.359 22.4205 188.095 22.7898 187.908C23.1615 187.721 23.5876 187.628 24.0682 187.628C24.5559 187.628 24.9844 187.719 25.3537 187.901C25.723 188.084 26.0095 188.333 26.2131 188.651C26.419 188.968 26.522 189.33 26.522 189.737C26.522 190.009 26.4699 190.277 26.3658 190.54C26.2616 190.803 26.0781 191.094 25.8153 191.413C25.5549 191.733 25.1892 192.12 24.718 192.575L23.4645 193.849V193.899H26.6321V195H21.6463ZM30.6455 195.138C30.0607 195.138 29.5588 194.991 29.1398 194.695C28.7231 194.396 28.4023 193.967 28.1774 193.406C27.9549 192.842 27.8436 192.164 27.8436 191.371C27.846 190.578 27.9584 189.903 28.181 189.347C28.4059 188.788 28.7267 188.362 29.1433 188.068C29.5624 187.775 30.0631 187.628 30.6455 187.628C31.2278 187.628 31.7286 187.775 32.1476 188.068C32.5666 188.362 32.8874 188.788 33.1099 189.347C33.3348 189.905 33.4473 190.58 33.4473 191.371C33.4473 192.166 33.3348 192.846 33.1099 193.409C32.8874 193.97 32.5666 194.399 32.1476 194.695C31.7309 194.991 31.2302 195.138 30.6455 195.138ZM30.6455 194.027C31.1 194.027 31.4587 193.803 31.7214 193.356C31.9866 192.906 32.1192 192.244 32.1192 191.371C32.1192 190.793 32.0588 190.308 31.9381 189.915C31.8173 189.522 31.6469 189.226 31.4267 189.027C31.2065 188.826 30.9461 188.725 30.6455 188.725C30.1933 188.725 29.8358 188.95 29.573 189.4C29.3102 189.847 29.1777 190.504 29.1753 191.371C29.1729 191.951 29.2309 192.438 29.3493 192.834C29.47 193.229 29.6405 193.527 29.8607 193.729C30.0808 193.928 30.3424 194.027 30.6455 194.027Z" fill="#5D6A7E"/>
<path d="M24.2564 181.099C23.745 181.099 23.2905 181.012 22.8928 180.837C22.4974 180.661 22.1849 180.418 21.9553 180.105C21.7256 179.793 21.6037 179.432 21.5895 179.022H22.9247C22.9366 179.219 23.0017 179.39 23.12 179.537C23.2384 179.681 23.3958 179.794 23.5923 179.874C23.7888 179.955 24.009 179.995 24.2528 179.995C24.5133 179.995 24.7441 179.95 24.9453 179.86C25.1465 179.768 25.304 179.64 25.4176 179.477C25.5313 179.313 25.5869 179.125 25.5845 178.912C25.5869 178.692 25.5301 178.498 25.4141 178.33C25.2981 178.161 25.13 178.03 24.9098 177.935C24.692 177.841 24.4292 177.793 24.1214 177.793H23.4787V176.778H24.1214C24.3748 176.778 24.5961 176.734 24.7855 176.646C24.9773 176.559 25.1276 176.436 25.2365 176.277C25.3454 176.116 25.3987 175.93 25.3963 175.719C25.3987 175.513 25.3525 175.335 25.2578 175.183C25.1655 175.029 25.0341 174.91 24.8636 174.825C24.6955 174.739 24.4979 174.697 24.2706 174.697C24.0481 174.697 23.8421 174.737 23.6527 174.817C23.4633 174.898 23.3106 175.013 23.1946 175.162C23.0786 175.309 23.017 175.484 23.0099 175.688H21.7422C21.7517 175.28 21.8688 174.923 22.0938 174.615C22.321 174.305 22.6241 174.063 23.0028 173.891C23.3816 173.715 23.8066 173.628 24.2777 173.628C24.763 173.628 25.1844 173.719 25.5419 173.901C25.9018 174.081 26.1799 174.324 26.3764 174.629C26.5729 174.935 26.6712 175.272 26.6712 175.641C26.6735 176.051 26.5528 176.394 26.3089 176.671C26.0675 176.948 25.7502 177.129 25.3572 177.214V177.271C25.8686 177.342 26.2604 177.532 26.5327 177.839C26.8073 178.145 26.9434 178.525 26.9411 178.979C26.9411 179.387 26.825 179.751 26.593 180.073C26.3634 180.393 26.0462 180.644 25.6413 180.826C25.2389 181.008 24.7772 181.099 24.2564 181.099ZM30.9482 181.138C30.3634 181.138 29.8615 180.991 29.4425 180.695C29.0258 180.396 28.7051 179.967 28.4801 179.406C28.2576 178.842 28.1463 178.164 28.1463 177.371C28.1487 176.578 28.2612 175.903 28.4837 175.347C28.7086 174.788 29.0294 174.362 29.4461 174.068C29.8651 173.775 30.3658 173.628 30.9482 173.628C31.5306 173.628 32.0313 173.775 32.4503 174.068C32.8694 174.362 33.1901 174.788 33.4127 175.347C33.6376 175.905 33.75 176.58 33.75 177.371C33.75 178.166 33.6376 178.846 33.4127 179.409C33.1901 179.97 32.8694 180.399 32.4503 180.695C32.0337 180.991 31.5329 181.138 30.9482 181.138ZM30.9482 180.027C31.4027 180.027 31.7614 179.803 32.0242 179.356C32.2893 178.906 32.4219 178.244 32.4219 177.371C32.4219 176.793 32.3615 176.308 32.2408 175.915C32.1201 175.522 31.9496 175.226 31.7294 175.027C31.5093 174.826 31.2489 174.725 30.9482 174.725C30.496 174.725 30.1385 174.95 29.8757 175.4C29.613 175.847 29.4804 176.504 29.478 177.371C29.4757 177.951 29.5337 178.438 29.652 178.834C29.7728 179.229 29.9432 179.527 30.1634 179.729C30.3836 179.928 30.6452 180.027 30.9482 180.027Z" fill="#5D6A7E"/>
<path d="M21.5149 165.651V164.603L24.6009 159.727H25.4744V161.219H24.9418L22.8643 164.511V164.567H27.1719V165.651H21.5149ZM24.9844 167V165.331L24.9986 164.862V159.727H26.2415V167H24.9844ZM31.0947 167.138C30.5099 167.138 30.008 166.991 29.589 166.695C29.1723 166.396 28.8515 165.967 28.6266 165.406C28.4041 164.842 28.2928 164.164 28.2928 163.371C28.2952 162.578 28.4076 161.903 28.6302 161.347C28.8551 160.788 29.1759 160.362 29.5925 160.068C30.0116 159.775 30.5123 159.628 31.0947 159.628C31.6771 159.628 32.1778 159.775 32.5968 160.068C33.0158 160.362 33.3366 160.788 33.5592 161.347C33.7841 161.905 33.8965 162.58 33.8965 163.371C33.8965 164.166 33.7841 164.846 33.5592 165.409C33.3366 165.97 33.0158 166.399 32.5968 166.695C32.1801 166.991 31.6794 167.138 31.0947 167.138ZM31.0947 166.027C31.5492 166.027 31.9079 165.803 32.1707 165.356C32.4358 164.906 32.5684 164.244 32.5684 163.371C32.5684 162.793 32.508 162.308 32.3873 161.915C32.2665 161.522 32.0961 161.226 31.8759 161.027C31.6558 160.826 31.3953 160.725 31.0947 160.725C30.6425 160.725 30.285 160.95 30.0222 161.4C29.7594 161.847 29.6269 162.504 29.6245 163.371C29.6221 163.951 29.6801 164.438 29.7985 164.834C29.9192 165.229 30.0897 165.527 30.3099 165.729C30.53 165.928 30.7916 166.027 31.0947 166.027Z" fill="#5D6A7E"/>
<path d="M24.1747 153.099C23.7012 153.099 23.2775 153.011 22.9034 152.833C22.5294 152.653 22.2322 152.407 22.0121 152.094C21.7943 151.782 21.6783 151.424 21.6641 151.022H22.9425C22.9661 151.32 23.0952 151.564 23.3295 151.754C23.5639 151.941 23.8456 152.034 24.1747 152.034C24.4328 152.034 24.6624 151.975 24.8636 151.857C25.0649 151.738 25.2235 151.574 25.3395 151.363C25.4555 151.152 25.5123 150.912 25.5099 150.642C25.5123 150.367 25.4543 150.124 25.3359 149.911C25.2176 149.697 25.0554 149.531 24.8494 149.41C24.6435 149.287 24.4067 149.225 24.1392 149.225C23.9214 149.223 23.7071 149.263 23.4964 149.346C23.2857 149.429 23.1188 149.538 22.9957 149.673L21.8061 149.477L22.1861 145.727H26.4048V146.828H23.2763L23.0668 148.756H23.1094C23.2443 148.598 23.4349 148.466 23.6811 148.362C23.9273 148.256 24.1972 148.202 24.4908 148.202C24.9311 148.202 25.3241 148.307 25.6697 148.515C26.0154 148.721 26.2876 149.005 26.4865 149.367C26.6854 149.729 26.7848 150.144 26.7848 150.61C26.7848 151.091 26.6735 151.519 26.451 151.896C26.2308 152.27 25.9242 152.564 25.5312 152.78C25.1406 152.993 24.6884 153.099 24.1747 153.099ZM30.7626 153.138C30.1779 153.138 29.676 152.991 29.257 152.695C28.8403 152.396 28.5195 151.967 28.2946 151.406C28.0721 150.842 27.9608 150.164 27.9608 149.371C27.9632 148.578 28.0756 147.903 28.2982 147.347C28.5231 146.788 28.8438 146.362 29.2605 146.068C29.6795 145.775 30.1803 145.628 30.7626 145.628C31.345 145.628 31.8457 145.775 32.2648 146.068C32.6838 146.362 33.0046 146.788 33.2271 147.347C33.452 147.905 33.5645 148.58 33.5645 149.371C33.5645 150.166 33.452 150.846 33.2271 151.409C33.0046 151.97 32.6838 152.399 32.2648 152.695C31.8481 152.991 31.3474 153.138 30.7626 153.138ZM30.7626 152.027C31.2172 152.027 31.5759 151.803 31.8386 151.356C32.1038 150.906 32.2364 150.244 32.2364 149.371C32.2364 148.793 32.176 148.308 32.0553 147.915C31.9345 147.522 31.7641 147.226 31.5439 147.027C31.3237 146.826 31.0633 146.725 30.7626 146.725C30.3105 146.725 29.953 146.95 29.6902 147.4C29.4274 147.847 29.2948 148.504 29.2925 149.371C29.2901 149.951 29.3481 150.438 29.4665 150.834C29.5872 151.229 29.7577 151.527 29.9778 151.729C30.198 151.928 30.4596 152.027 30.7626 152.027Z" fill="#5D6A7E"/>
<path d="M24.3097 140.099C23.9616 140.097 23.6219 140.037 23.2905 139.918C22.959 139.798 22.6607 139.602 22.3956 139.332C22.1304 139.06 21.9197 138.699 21.7635 138.249C21.6072 137.797 21.5303 137.237 21.5327 136.57C21.5327 135.947 21.599 135.392 21.7315 134.904C21.8641 134.416 22.0547 134.004 22.3033 133.668C22.5518 133.33 22.8513 133.072 23.2017 132.894C23.5545 132.717 23.9486 132.628 24.3842 132.628C24.8411 132.628 25.246 132.718 25.5987 132.898C25.9538 133.078 26.2403 133.324 26.4581 133.636C26.6759 133.946 26.8108 134.297 26.8629 134.688H25.5668C25.5005 134.408 25.3643 134.186 25.1584 134.02C24.9548 133.852 24.6967 133.768 24.3842 133.768C23.88 133.768 23.4917 133.987 23.2195 134.425C22.9496 134.863 22.8134 135.464 22.8111 136.229H22.8608C22.9768 136.02 23.1271 135.842 23.3118 135.692C23.4964 135.543 23.7048 135.429 23.9368 135.348C24.1712 135.265 24.4186 135.224 24.679 135.224C25.1051 135.224 25.4875 135.326 25.826 135.529C26.1669 135.733 26.4368 136.013 26.6357 136.371C26.8345 136.726 26.9328 137.133 26.9304 137.592C26.9328 138.071 26.8239 138.5 26.6037 138.881C26.3835 139.26 26.0769 139.558 25.6839 139.776C25.291 139.994 24.8329 140.102 24.3097 140.099ZM24.3026 139.034C24.5606 139.034 24.7914 138.971 24.995 138.846C25.1986 138.72 25.3596 138.551 25.478 138.338C25.5964 138.125 25.6544 137.886 25.652 137.621C25.6544 137.36 25.5975 137.125 25.4815 136.914C25.3679 136.703 25.2105 136.536 25.0092 136.413C24.808 136.29 24.5784 136.229 24.3203 136.229C24.1286 136.229 23.9498 136.265 23.7841 136.339C23.6184 136.412 23.474 136.514 23.3509 136.644C23.2277 136.772 23.1307 136.921 23.0597 137.092C22.991 137.26 22.9555 137.44 22.9531 137.631C22.9555 137.885 23.0147 138.118 23.1307 138.331C23.2467 138.544 23.4065 138.714 23.6101 138.842C23.8137 138.97 24.0445 139.034 24.3026 139.034ZM30.9189 140.138C30.3341 140.138 29.8322 139.991 29.4132 139.695C28.9965 139.396 28.6758 138.967 28.4509 138.406C28.2283 137.842 28.117 137.164 28.117 136.371C28.1194 135.578 28.2319 134.903 28.4544 134.347C28.6793 133.788 29.0001 133.362 29.4168 133.068C29.8358 132.775 30.3365 132.628 30.9189 132.628C31.5013 132.628 32.002 132.775 32.421 133.068C32.8401 133.362 33.1608 133.788 33.3834 134.347C33.6083 134.905 33.7207 135.58 33.7207 136.371C33.7207 137.166 33.6083 137.846 33.3834 138.409C33.1608 138.97 32.8401 139.399 32.421 139.695C32.0044 139.991 31.5036 140.138 30.9189 140.138ZM30.9189 139.027C31.3734 139.027 31.7321 138.803 31.9949 138.356C32.26 137.906 32.3926 137.244 32.3926 136.371C32.3926 135.793 32.3322 135.308 32.2115 134.915C32.0908 134.522 31.9203 134.226 31.7001 134.027C31.48 133.826 31.2196 133.725 30.9189 133.725C30.4667 133.725 30.1092 133.95 29.8464 134.4C29.5837 134.847 29.4511 135.504 29.4487 136.371C29.4464 136.951 29.5044 137.438 29.6227 137.834C29.7435 138.229 29.9139 138.527 30.1341 138.729C30.3543 138.928 30.6159 139.027 30.9189 139.027Z" fill="#5D6A7E"/>
<path d="M21.9126 125L25.0057 118.878V118.828H21.4155V117.727H26.3693V118.853L23.2798 125H21.9126ZM30.1474 125.138C29.5627 125.138 29.0608 124.991 28.6417 124.695C28.2251 124.396 27.9043 123.967 27.6794 123.406C27.4568 122.842 27.3456 122.164 27.3456 121.371C27.3479 120.578 27.4604 119.903 27.6829 119.347C27.9078 118.788 28.2286 118.362 28.6453 118.068C29.0643 117.775 29.565 117.628 30.1474 117.628C30.7298 117.628 31.2305 117.775 31.6495 118.068C32.0686 118.362 32.3894 118.788 32.6119 119.347C32.8368 119.905 32.9493 120.58 32.9493 121.371C32.9493 122.166 32.8368 122.846 32.6119 123.409C32.3894 123.97 32.0686 124.399 31.6495 124.695C31.2329 124.991 30.7322 125.138 30.1474 125.138ZM30.1474 124.027C30.602 124.027 30.9606 123.803 31.2234 123.356C31.4886 122.906 31.6211 122.244 31.6211 121.371C31.6211 120.793 31.5608 120.308 31.44 119.915C31.3193 119.522 31.1488 119.226 30.9287 119.027C30.7085 118.826 30.4481 118.725 30.1474 118.725C29.6952 118.725 29.3377 118.95 29.075 119.4C28.8122 119.847 28.6796 120.504 28.6772 121.371C28.6749 121.951 28.7329 122.438 28.8512 122.834C28.972 123.229 29.1424 123.527 29.3626 123.729C29.5828 123.928 29.8444 124.027 30.1474 124.027Z" fill="#5D6A7E"/>
<path d="M24.2315 111.099C23.7036 111.099 23.2348 111.011 22.8253 110.833C22.4181 110.656 22.0985 110.413 21.8665 110.105C21.6368 109.795 21.5232 109.443 21.5256 109.05C21.5232 108.745 21.5895 108.464 21.7244 108.209C21.8594 107.953 22.0417 107.74 22.2713 107.57C22.5033 107.397 22.7614 107.287 23.0455 107.239V107.19C22.6714 107.107 22.3684 106.916 22.1364 106.618C21.9067 106.317 21.7931 105.97 21.7955 105.577C21.7931 105.203 21.8973 104.87 22.108 104.576C22.3187 104.282 22.6075 104.052 22.9744 103.884C23.3414 103.713 23.7604 103.628 24.2315 103.628C24.6979 103.628 25.1134 103.713 25.478 103.884C25.8449 104.052 26.1338 104.282 26.3445 104.576C26.5575 104.87 26.6641 105.203 26.6641 105.577C26.6641 105.97 26.5469 106.317 26.3125 106.618C26.0805 106.916 25.781 107.107 25.4141 107.19V107.239C25.6982 107.287 25.9538 107.397 26.1811 107.57C26.4107 107.74 26.593 107.953 26.728 108.209C26.8653 108.464 26.9339 108.745 26.9339 109.05C26.9339 109.443 26.8179 109.795 26.5859 110.105C26.3539 110.413 26.0343 110.656 25.6271 110.833C25.2223 111.011 24.7571 111.099 24.2315 111.099ZM24.2315 110.084C24.5038 110.084 24.7405 110.038 24.9418 109.945C25.143 109.851 25.2992 109.718 25.4105 109.548C25.5218 109.377 25.5786 109.181 25.581 108.958C25.5786 108.726 25.5182 108.521 25.3999 108.344C25.2839 108.164 25.1241 108.023 24.9205 107.921C24.7192 107.819 24.4896 107.768 24.2315 107.768C23.9711 107.768 23.7391 107.819 23.5355 107.921C23.3319 108.023 23.1709 108.164 23.0526 108.344C22.9366 108.521 22.8797 108.726 22.8821 108.958C22.8797 109.181 22.9342 109.377 23.0455 109.548C23.1567 109.716 23.313 109.847 23.5142 109.942C23.7178 110.036 23.9569 110.084 24.2315 110.084ZM24.2315 106.771C24.4541 106.771 24.6506 106.726 24.821 106.636C24.9938 106.546 25.13 106.42 25.2294 106.259C25.3288 106.098 25.3797 105.912 25.3821 105.702C25.3797 105.493 25.33 105.311 25.233 105.155C25.1359 104.996 25.0009 104.874 24.8281 104.789C24.6553 104.701 24.4564 104.658 24.2315 104.658C24.0019 104.658 23.7995 104.701 23.6243 104.789C23.4515 104.874 23.3165 104.996 23.2195 105.155C23.1248 105.311 23.0786 105.493 23.081 105.702C23.0786 105.912 23.1259 106.098 23.223 106.259C23.3224 106.418 23.4586 106.543 23.6314 106.636C23.8066 106.726 24.0066 106.771 24.2315 106.771ZM30.8896 111.138C30.3048 111.138 29.8029 110.991 29.3839 110.695C28.9672 110.396 28.6465 109.967 28.4216 109.406C28.199 108.842 28.0877 108.164 28.0877 107.371C28.0901 106.578 28.2026 105.903 28.4251 105.347C28.65 104.788 28.9708 104.362 29.3875 104.068C29.8065 103.775 30.3072 103.628 30.8896 103.628C31.472 103.628 31.9727 103.775 32.3917 104.068C32.8108 104.362 33.1315 104.788 33.3541 105.347C33.579 105.905 33.6914 106.58 33.6914 107.371C33.6914 108.166 33.579 108.846 33.3541 109.409C33.1315 109.97 32.8108 110.399 32.3917 110.695C31.9751 110.991 31.4743 111.138 30.8896 111.138ZM30.8896 110.027C31.3441 110.027 31.7028 109.803 31.9656 109.356C32.2307 108.906 32.3633 108.244 32.3633 107.371C32.3633 106.793 32.3029 106.308 32.1822 105.915C32.0615 105.522 31.891 105.226 31.6708 105.027C31.4507 104.826 31.1903 104.725 30.8896 104.725C30.4374 104.725 30.0799 104.95 29.8172 105.4C29.5544 105.847 29.4218 106.504 29.4194 107.371C29.4171 107.951 29.4751 108.438 29.5934 108.834C29.7142 109.229 29.8846 109.527 30.1048 109.729C30.325 109.928 30.5866 110.027 30.8896 110.027Z" fill="#5D6A7E"/>
<path d="M24.1712 89.6278C24.5192 89.6302 24.8577 89.6918 25.1868 89.8125C25.5182 89.9309 25.8165 90.125 26.0817 90.3949C26.3468 90.6624 26.5575 91.0211 26.7138 91.4709C26.87 91.9207 26.9482 92.477 26.9482 93.1399C26.9505 93.7649 26.8842 94.3236 26.7493 94.8161C26.6167 95.3061 26.4261 95.7204 26.1776 96.0589C25.929 96.3975 25.6295 96.6555 25.2791 96.8331C24.9287 97.0107 24.5346 97.0994 24.0966 97.0994C23.6373 97.0994 23.2301 97.0095 22.875 96.8295C22.5223 96.6496 22.237 96.4034 22.0192 96.0909C21.8014 95.7784 21.6676 95.4209 21.6179 95.0185H22.9141C22.9804 95.3073 23.1153 95.5369 23.3189 95.7074C23.5249 95.8755 23.7841 95.9595 24.0966 95.9595C24.6009 95.9595 24.9891 95.7405 25.2614 95.3026C25.5336 94.8646 25.6697 94.2562 25.6697 93.4773H25.62C25.504 93.6856 25.3537 93.8655 25.169 94.017C24.9844 94.1662 24.7749 94.281 24.5405 94.3615C24.3085 94.442 24.0623 94.4822 23.8018 94.4822C23.3757 94.4822 22.9922 94.3804 22.6513 94.1768C22.3127 93.9732 22.044 93.6939 21.8452 93.3388C21.6487 92.9837 21.5492 92.5777 21.5469 92.1207C21.5469 91.6473 21.6558 91.2223 21.8736 90.8459C22.0938 90.4671 22.4003 90.1688 22.7933 89.951C23.1863 89.7308 23.6456 89.6231 24.1712 89.6278ZM24.1747 90.6932C23.919 90.6932 23.6882 90.7559 23.4822 90.8814C23.2786 91.0045 23.1177 91.1726 22.9993 91.3857C22.8833 91.5964 22.8253 91.8319 22.8253 92.0923C22.8277 92.3504 22.8857 92.5848 22.9993 92.7955C23.1153 93.0062 23.2727 93.1731 23.4716 93.2962C23.6728 93.4193 23.9025 93.4808 24.1605 93.4808C24.3523 93.4808 24.531 93.4441 24.6967 93.3707C24.8625 93.2973 25.0069 93.1955 25.13 93.0653C25.2554 92.9328 25.3525 92.7824 25.4212 92.6143C25.4922 92.4463 25.5265 92.2687 25.5241 92.0817C25.5241 91.8331 25.465 91.6035 25.3466 91.3928C25.2306 91.1821 25.0708 91.0128 24.8672 90.8849C24.666 90.7571 24.4351 90.6932 24.1747 90.6932ZM30.9189 97.1385C30.3341 97.1385 29.8322 96.9905 29.4132 96.6946C28.9965 96.3963 28.6758 95.9666 28.4509 95.4055C28.2283 94.8421 28.117 94.1638 28.117 93.3707C28.1194 92.5777 28.2319 91.9029 28.4544 91.3466C28.6793 90.7879 29.0001 90.3617 29.4168 90.0682C29.8358 89.7746 30.3365 89.6278 30.9189 89.6278C31.5013 89.6278 32.002 89.7746 32.421 90.0682C32.8401 90.3617 33.1608 90.7879 33.3834 91.3466C33.6083 91.9053 33.7207 92.58 33.7207 93.3707C33.7207 94.1662 33.6083 94.8456 33.3834 95.4091C33.1608 95.9702 32.8401 96.3987 32.421 96.6946C32.0044 96.9905 31.5036 97.1385 30.9189 97.1385ZM30.9189 96.027C31.3734 96.027 31.7321 95.8033 31.9949 95.3558C32.26 94.906 32.3926 94.2443 32.3926 93.3707C32.3926 92.7931 32.3322 92.3078 32.2115 91.9148C32.0908 91.5218 31.9203 91.2259 31.7001 91.027C31.48 90.8258 31.2196 90.7251 30.9189 90.7251C30.4667 90.7251 30.1092 90.95 29.8464 91.3999C29.5837 91.8473 29.4511 92.5043 29.4487 93.3707C29.4464 93.9508 29.5044 94.4384 29.6227 94.8338C29.7435 95.2292 29.9139 95.5275 30.1341 95.7287C30.3543 95.9276 30.6159 96.027 30.9189 96.027Z" fill="#5D6A7E"/>
<path d="M24.6044 75.7273V83H23.2869V77.0092H23.2443L21.5433 78.0959V76.8885L23.3509 75.7273H24.6044ZM29.2392 83.1385C28.6545 83.1385 28.1526 82.9905 27.7335 82.6946C27.3169 82.3963 26.9961 81.9666 26.7712 81.4055C26.5486 80.8421 26.4374 80.1638 26.4374 79.3707C26.4397 78.5777 26.5522 77.9029 26.7747 77.3466C26.9996 76.7879 27.3204 76.3617 27.7371 76.0682C28.1561 75.7746 28.6568 75.6278 29.2392 75.6278C29.8216 75.6278 30.3223 75.7746 30.7413 76.0682C31.1604 76.3617 31.4812 76.7879 31.7037 77.3466C31.9286 77.9053 32.0411 78.58 32.0411 79.3707C32.0411 80.1662 31.9286 80.8456 31.7037 81.4091C31.4812 81.9702 31.1604 82.3987 30.7413 82.6946C30.3247 82.9905 29.824 83.1385 29.2392 83.1385ZM29.2392 82.027C29.6938 82.027 30.0524 81.8033 30.3152 81.3558C30.5804 80.906 30.7129 80.2443 30.7129 79.3707C30.7129 78.7931 30.6526 78.3078 30.5318 77.9148C30.4111 77.5218 30.2406 77.2259 30.0205 77.027C29.8003 76.8258 29.5399 76.7251 29.2392 76.7251C28.787 76.7251 28.4295 76.95 28.1668 77.3999C27.904 77.8473 27.7714 78.5043 27.769 79.3707C27.7667 79.9508 27.8247 80.4384 27.943 80.8338C28.0638 81.2292 28.2342 81.5275 28.4544 81.7287C28.6746 81.9276 28.9362 82.027 29.2392 82.027ZM36.0091 83.1385C35.4244 83.1385 34.9225 82.9905 34.5034 82.6946C34.0868 82.3963 33.766 81.9666 33.5411 81.4055C33.3185 80.8421 33.2073 80.1638 33.2073 79.3707C33.2096 78.5777 33.3221 77.9029 33.5446 77.3466C33.7695 76.7879 34.0903 76.3617 34.507 76.0682C34.926 75.7746 35.4267 75.6278 36.0091 75.6278C36.5915 75.6278 37.0922 75.7746 37.5113 76.0682C37.9303 76.3617 38.2511 76.7879 38.4736 77.3466C38.6985 77.9053 38.811 78.58 38.811 79.3707C38.811 80.1662 38.6985 80.8456 38.4736 81.4091C38.2511 81.9702 37.9303 82.3987 37.5113 82.6946C37.0946 82.9905 36.5939 83.1385 36.0091 83.1385ZM36.0091 82.027C36.4637 82.027 36.8223 81.8033 37.0851 81.3558C37.3503 80.906 37.4828 80.2443 37.4828 79.3707C37.4828 78.7931 37.4225 78.3078 37.3017 77.9148C37.181 77.5218 37.0105 77.2259 36.7904 77.027C36.5702 76.8258 36.3098 76.7251 36.0091 76.7251C35.5569 76.7251 35.1995 76.95 34.9367 77.3999C34.6739 77.8473 34.5413 78.5043 34.539 79.3707C34.5366 79.9508 34.5946 80.4384 34.713 80.8338C34.8337 81.2292 35.0042 81.5275 35.2243 81.7287C35.4445 81.9276 35.7061 82.027 36.0091 82.027Z" fill="#5D6A7E"/>
<path d="M44 167.5L47.8611 164.248C51.2222 161.322 57.9444 155.47 64.6667 159.846C71.3889 164.223 78.1111 178.827 84.8333 178.134C91.5556 177.442 98.2778 161.452 105 155.08C111.722 148.708 118.444 151.953 125.167 158.566C131.889 165.178 138.611 175.158 145.333 186.3C152.056 197.442 158.778 209.746 165.5 211.105C172.222 212.464 178.944 202.877 185.667 189.444C192.389 176.011 199.111 158.731 205.833 163.154C212.556 167.576 219.278 193.701 226 206.987C232.722 220.272 239.444 220.718 246.167 216.964C252.889 213.21 259.611 205.255 266.333 197.617C273.056 189.978 279.778 182.655 286.5 188.013C293.222 193.371 299.944 211.41 306.667 210.377C313.389 209.343 320.111 189.238 326.833 181.052C333.556 172.865 340.278 176.596 347 173.609C353.722 170.622 360.444 160.916 367.167 154.463C373.889 148.01 380.611 144.811 387.333 142.775C394.056 140.74 400.778 139.869 404.139 139.434L406 139" stroke="#18A0FB"/>
<rect x="0.5" y="0.5" width="448" height="254" rx="3.5" stroke="#D9D9D9" stroke-opacity="0.5"/>
</svg>
