<svg width="154" height="154" viewBox="0 0 154 154" fill="none" xmlns="http://www.w3.org/2000/svg">
<path d="M154 77C154 119.526 119.526 154 77 154C34.4741 154 0 119.526 0 77C0 34.4741 34.4741 0 77 0C119.526 0 154 34.4741 154 77ZM26.9291 77C26.9291 104.653 49.3466 127.071 77 127.071C104.653 127.071 127.071 104.653 127.071 77C127.071 49.3466 104.653 26.9291 77 26.9291C49.3466 26.9291 26.9291 49.3466 26.9291 77Z" fill="#E8EEF4"/>
<path d="M77 152C77 153.105 77.8958 154.003 79 153.974C93.1489 153.607 106.937 149.345 118.841 141.64C131.304 133.573 141.17 122.074 147.249 108.529C153.328 94.9834 155.362 79.9695 153.105 65.2952C150.95 51.2805 144.969 38.1463 135.839 27.331C135.126 26.487 133.86 26.4147 133.034 27.1488L115.904 42.3894C115.078 43.1236 115.008 44.3853 115.709 45.2392C121.394 52.1678 125.123 60.5063 126.489 69.3887C127.957 78.931 126.634 88.6941 122.681 97.5021C118.728 106.31 112.313 113.788 104.208 119.034C96.6636 123.917 87.9549 126.673 78.9996 127.031C77.8959 127.075 77 127.966 77 129.071V152Z" fill="#57CA55"/>
</svg>
