<svg width="24" height="24" viewBox="0 0 24 24" fill="none" xmlns="http://www.w3.org/2000/svg">
<path d="M5.40156 10.7996H9.00156C9.47902 10.7996 9.93677 10.61 10.2744 10.2725C10.6119 9.93483 10.8016 9.47707 10.8016 8.99961V5.39961C10.8016 4.92215 10.6119 4.4644 10.2744 4.12675C9.93678 3.78925 9.47902 3.59961 9.00156 3.59961H5.40156C4.9241 3.59961 4.46635 3.78925 4.12871 4.12675C3.7912 4.46439 3.60156 4.92215 3.60156 5.39961V8.99961C3.60156 9.47707 3.7912 9.93482 4.12871 10.2725C4.46634 10.61 4.9241 10.7996 5.40156 10.7996ZM4.80156 5.39961C4.80156 5.2405 4.86478 5.08782 4.97728 4.97532C5.08977 4.86283 5.24246 4.79961 5.40156 4.79961H9.00156C9.16067 4.79961 9.31335 4.86283 9.42585 4.97532C9.53835 5.08782 9.60156 5.2405 9.60156 5.39961V8.99961C9.60156 9.15872 9.53835 9.3114 9.42585 9.42389C9.31335 9.53639 9.16067 9.59961 9.00156 9.59961H5.40156C5.24246 9.59961 5.08977 9.53639 4.97728 9.42389C4.86478 9.3114 4.80156 9.15872 4.80156 8.99961V5.39961ZM18.6016 3.59961H14.4016C13.9241 3.59961 13.4664 3.78925 13.1287 4.12675C12.7912 4.46439 12.6016 4.92215 12.6016 5.39961V9.59961C12.6016 10.0771 12.7912 10.5348 13.1287 10.8725C13.4663 11.21 13.9241 11.3996 14.4016 11.3996H18.6016C19.079 11.3996 19.5368 11.21 19.8744 10.8725C20.2119 10.5348 20.4016 10.0771 20.4016 9.59961V5.39961C20.4016 4.92215 20.2119 4.4644 19.8744 4.12675C19.5368 3.78925 19.079 3.59961 18.6016 3.59961ZM19.2016 9.59961C19.2016 9.75872 19.1383 9.9114 19.0258 10.0239C18.9133 10.1364 18.7607 10.1996 18.6016 10.1996H14.4016C14.2425 10.1996 14.0898 10.1364 13.9773 10.0239C13.8648 9.9114 13.8016 9.75872 13.8016 9.59961V5.39961C13.8016 5.2405 13.8648 5.08782 13.9773 4.97532C14.0898 4.86283 14.2425 4.79961 14.4016 4.79961H18.6016C18.7607 4.79961 18.9133 4.86283 19.0258 4.97532C19.1383 5.08782 19.2016 5.2405 19.2016 5.39961V9.59961ZM18.6016 13.1996H15.0016C14.5241 13.1996 14.0664 13.3892 13.7287 13.7268C13.3912 14.0644 13.2016 14.5221 13.2016 14.9996V18.5996C13.2016 19.0771 13.3912 19.5348 13.7287 19.8725C14.0663 20.21 14.5241 20.3996 15.0016 20.3996H18.6016C19.079 20.3996 19.5368 20.21 19.8744 19.8725C20.2119 19.5348 20.4016 19.0771 20.4016 18.5996V14.9996C20.4016 14.5221 20.2119 14.0644 19.8744 13.7268C19.5368 13.3892 19.079 13.1996 18.6016 13.1996ZM19.2016 18.5996C19.2016 18.7587 19.1383 18.9114 19.0258 19.0239C18.9133 19.1364 18.7607 19.1996 18.6016 19.1996H15.0016C14.8425 19.1996 14.6898 19.1364 14.5773 19.0239C14.4648 18.9114 14.4016 18.7587 14.4016 18.5996V14.9996C14.4016 14.8405 14.4648 14.6878 14.5773 14.5753C14.6898 14.4628 14.8425 14.3996 15.0016 14.3996H18.6016C18.7607 14.3996 18.9133 14.4628 19.0258 14.5753C19.1383 14.6878 19.2016 14.8405 19.2016 14.9996V18.5996ZM9.60156 12.5996H5.40156C4.9241 12.5996 4.46635 12.7893 4.12871 13.1268C3.7912 13.4644 3.60156 13.9221 3.60156 14.3996V18.5996C3.60156 19.0771 3.7912 19.5348 4.12871 19.8725C4.46634 20.21 4.9241 20.3996 5.40156 20.3996H9.60156C10.079 20.3996 10.5368 20.21 10.8744 19.8725C11.2119 19.5348 11.4016 19.0771 11.4016 18.5996V14.3996C11.4016 13.9221 11.2119 13.4644 10.8744 13.1268C10.5368 12.7893 10.079 12.5996 9.60156 12.5996ZM10.2016 18.5996C10.2016 18.7587 10.1383 18.9114 10.0258 19.0239C9.91335 19.1364 9.76067 19.1996 9.60156 19.1996H5.40156C5.24246 19.1996 5.08977 19.1364 4.97728 19.0239C4.86478 18.9114 4.80156 18.7587 4.80156 18.5996V14.3996C4.80156 14.2405 4.86478 14.0878 4.97728 13.9753C5.08977 13.8628 5.24246 13.7996 5.40156 13.7996H9.60156C9.76067 13.7996 9.91335 13.8628 10.0258 13.9753C10.1383 14.0878 10.2016 14.2405 10.2016 14.3996V18.5996Z" fill="#949FB1"/>
</svg>
