<svg width="24" height="24" viewBox="0 0 24 24" fill="none" xmlns="http://www.w3.org/2000/svg">
<path d="M12.0016 0.377094C10.493 0.322063 9.32476 1.36437 8.05974 2.01931C6.3392 3.03922 4.56746 3.98009 2.88118 5.05288C1.77821 5.94936 1.27145 7.39194 1.38728 8.78502C1.3937 11.255 1.37448 13.7255 1.39698 16.195C1.53981 17.6903 2.57668 18.9594 3.91093 19.5849C6.05284 20.8142 8.18218 22.0664 10.3319 23.2813C11.6985 23.9045 13.3163 23.6424 14.5252 22.7993C16.6608 21.5588 18.8097 20.3403 20.9369 19.0859C22.1606 18.2147 22.7415 16.6823 22.6159 15.2141C22.6095 12.7441 22.6287 10.2736 22.6062 7.80406C22.4632 6.30884 21.4265 5.03952 20.0921 4.41425C17.9502 3.18519 15.8205 1.93386 13.6708 0.718766C13.1505 0.477078 12.5725 0.378688 12.0016 0.377047L12.0016 0.377094ZM10.6565 6.59694H13.3471V17.4026H10.6565V6.59694ZM14.0423 8.94884H16.7316V17.4026H14.0423V8.94884ZM7.27112 13.3588H9.96128V17.4026H7.27112V13.3588V13.3588Z" fill="#949FB1"/>
</svg>
