<svg width="20" height="20" viewBox="0 0 20 20" fill="none" xmlns="http://www.w3.org/2000/svg">
<path d="M9.99844 13.84C11.2578 13.84 12.3283 14.6483 12.7196 15.7744L12.7665 15.7665L12.8784 15.76H18.6384C19.1687 15.76 19.5984 16.1898 19.5984 16.72C19.5984 17.2123 19.2278 17.6181 18.7504 17.6736L18.6385 17.68H12.8785C12.8242 17.68 12.7709 17.6755 12.7191 17.6669C12.3283 18.7918 11.2578 19.6 9.99844 19.6C8.73909 19.6 7.66862 18.7918 7.27728 17.6657L7.23041 17.6736L7.11844 17.68H1.35844C0.828216 17.68 0.398444 17.2502 0.398444 16.72C0.398444 16.2277 0.769039 15.8219 1.24647 15.7665L1.35843 15.76H7.11843C7.17267 15.76 7.22598 15.7646 7.27781 15.7732C7.66859 14.6483 8.7391 13.84 9.99844 13.84ZM9.99844 15.76C9.46822 15.76 9.03844 16.1898 9.03844 16.72C9.03844 17.2503 9.46822 17.68 9.99844 17.68C10.5287 17.68 10.9584 17.2503 10.9584 16.72C10.9584 16.1898 10.5287 15.76 9.99844 15.76ZM3.27844 7.12002C4.53776 7.12002 5.60826 7.92828 5.9996 9.05436L6.04647 9.04645L6.15844 9.04002H18.6384C19.1687 9.04002 19.5984 9.4698 19.5984 10C19.5984 10.4923 19.2278 10.8981 18.7504 10.9536L18.6385 10.96H6.15845C6.10421 10.96 6.05091 10.9555 5.99908 10.9469C5.60829 12.0718 4.53779 12.88 3.27844 12.88C1.68789 12.88 0.398438 11.5906 0.398438 10C0.398438 8.40947 1.68789 7.12001 3.27844 7.12001L3.27844 7.12002ZM3.27844 9.04002C2.74822 9.04002 2.31844 9.4698 2.31844 10C2.31844 10.5303 2.74822 10.96 3.27844 10.96C3.80867 10.96 4.23844 10.5303 4.23844 10C4.23844 9.4698 3.80867 9.04002 3.27844 9.04002ZM13.8384 0.400024C15.0978 0.400024 16.1683 1.20828 16.5596 2.33436L16.6065 2.32645L16.7184 2.32003H18.6384C19.1687 2.32003 19.5984 2.7498 19.5984 3.28003C19.5984 3.77233 19.2278 4.17814 18.7504 4.23358L18.6385 4.24001H16.7185C16.6642 4.24001 16.6109 4.23545 16.5591 4.22688C16.1683 5.35176 15.0978 6.16001 13.8384 6.16001C12.5791 6.16001 11.5086 5.35176 11.1173 4.22568L11.0704 4.23358L10.9584 4.24001H1.35844C0.828216 4.24001 0.398444 3.81024 0.398444 3.28001C0.398444 2.7877 0.769039 2.3819 1.24647 2.32646L1.35843 2.32003H10.9584C11.0127 2.32003 11.066 2.32458 11.1178 2.33316C11.5086 1.20828 12.5791 0.400024 13.8384 0.400024V0.400024ZM13.8384 2.32002C13.3082 2.32002 12.8784 2.7498 12.8784 3.28002C12.8784 3.81025 13.3082 4.24002 13.8384 4.24002C14.3687 4.24002 14.7984 3.81025 14.7984 3.28002C14.7984 2.7498 14.3687 2.32002 13.8384 2.32002Z" fill="#2A7BDD"/>
</svg>
