<svg width="24" height="24" viewBox="0 0 24 24" fill="none" xmlns="http://www.w3.org/2000/svg">
<path d="M11.6466 2.33849C11.7551 2.28071 11.8761 2.25049 11.9991 2.25049C12.122 2.25049 12.2431 2.28071 12.3516 2.33849L23.6016 8.33849C23.7214 8.4025 23.8215 8.49785 23.8914 8.61436C23.9612 8.73086 23.9981 8.86415 23.9981 8.99999C23.9981 9.13583 23.9612 9.26911 23.8914 9.38562C23.8215 9.50213 23.7214 9.59747 23.6016 9.66149L12.3516 15.6615C12.2431 15.7193 12.122 15.7495 11.9991 15.7495C11.8761 15.7495 11.7551 15.7193 11.6466 15.6615L0.396563 9.66149C0.276754 9.59747 0.17658 9.50213 0.106736 9.38562C0.0368916 9.26911 0 9.13583 0 8.99999C0 8.86415 0.0368916 8.73086 0.106736 8.61436C0.17658 8.49785 0.276754 8.4025 0.396563 8.33849L11.6466 2.33849V2.33849Z" fill="#949FB1"/>
<path d="M3.18656 12.8505L0.396563 14.3385C0.276754 14.4025 0.17658 14.4978 0.106736 14.6143C0.0368916 14.7308 0 14.8641 0 15C0 15.1358 0.0368916 15.2691 0.106736 15.3856C0.17658 15.5021 0.276754 15.5974 0.396563 15.6615L11.6466 21.6615C11.7551 21.7192 11.8761 21.7495 11.9991 21.7495C12.122 21.7495 12.2431 21.7192 12.3516 21.6615L23.6016 15.6615C23.7214 15.5974 23.8215 15.5021 23.8914 15.3856C23.9612 15.2691 23.9981 15.1358 23.9981 15C23.9981 14.8641 23.9612 14.7308 23.8914 14.6143C23.8215 14.4978 23.7214 14.4025 23.6016 14.3385L20.8116 12.8505L13.0566 16.9845C12.731 17.1578 12.3679 17.2485 11.9991 17.2485C11.6303 17.2485 11.2671 17.1578 10.9416 16.9845L3.18656 12.8505Z" fill="#949FB1"/>
</svg>
