<svg width="24" height="24" viewBox="0 0 24 24" fill="none" xmlns="http://www.w3.org/2000/svg">
<path d="M16.9996 10.3905H16.5253L16.5234 8.02703C16.5214 5.45224 14.4268 3.35766 11.852 3.35938C9.27736 3.36125 7.18264 5.45602 7.18435 8.0308L7.18824 10.3944H7.01922C6.1341 10.3963 5.41595 11.1144 5.41797 11.9995V19.0363C5.41797 19.9214 6.13797 20.6396 7.02309 20.6396L17.0033 20.6338C17.8884 20.6338 18.6066 19.9157 18.6046 19.0306V11.992C18.6046 11.1069 17.8846 10.3907 16.9994 10.3907L16.9996 10.3905ZM8.90881 10.3944L8.90493 8.03078C8.90493 6.40447 10.2259 5.08166 11.8522 5.07981C13.4785 5.07981 14.8013 6.40276 14.8013 8.02704L14.8052 10.3906L8.90881 10.3944Z" fill="#949FB1"/>
</svg>
