<svg width="139" height="29" viewBox="0 0 139 29" fill="none" xmlns="http://www.w3.org/2000/svg">
<path d="M22.832 3.52C23.048 3.7 23.156 3.904 23.156 4.132C23.156 4.252 23.144 4.324 23.12 4.348L22.112 6.004C22.016 6.112 21.932 6.202 21.86 6.274C21.788 6.334 21.716 6.364 21.644 6.364C21.512 6.364 21.344 6.28 21.14 6.112C20.24 5.476 19.292 4.996 18.296 4.672C17.312 4.336 16.268 4.132 15.164 4.06C13.556 4.06 12.074 4.348 10.718 4.924C9.362 5.5 8.186 6.28 7.19 7.264C6.206 8.236 5.432 9.37 4.868 10.666C4.316 11.962 4.04 13.324 4.04 14.752C4.04 16.276 4.322 17.68 4.886 18.964C5.462 20.248 6.236 21.358 7.208 22.294C8.18 23.23 9.302 23.962 10.574 24.49C11.846 25.006 13.184 25.264 14.588 25.264C16.652 25.264 18.584 24.688 20.384 23.536L21.14 23.068C21.344 22.948 21.488 22.888 21.572 22.888C21.644 22.888 21.716 22.924 21.788 22.996C21.86 23.056 21.944 23.14 22.04 23.248L23.084 24.94C23.108 25 23.126 25.06 23.138 25.12C23.15 25.18 23.156 25.24 23.156 25.3C23.156 25.396 23.12 25.492 23.048 25.588C22.976 25.684 22.868 25.768 22.724 25.84C21.62 26.632 20.396 27.256 19.052 27.712C17.708 28.168 16.256 28.396 14.696 28.396C13.424 28.396 12.2 28.234 11.024 27.91C9.86 27.586 8.768 27.13 7.748 26.542C6.728 25.942 5.804 25.228 4.976 24.4C4.148 23.56 3.434 22.63 2.834 21.61C2.246 20.59 1.79 19.498 1.466 18.334C1.142 17.17 0.98 15.952 0.98 14.68C0.98 13.42 1.142 12.202 1.466 11.026C1.79 9.85 2.246 8.752 2.834 7.732C3.434 6.712 4.154 5.788 4.994 4.96C5.834 4.12 6.758 3.406 7.766 2.818C8.786 2.218 9.884 1.756 11.06 1.432C12.236 1.096 13.46 0.927999 14.732 0.927999C16.22 0.927999 17.636 1.15 18.98 1.594C20.336 2.026 21.62 2.668 22.832 3.52ZM14.912 12.16C15.26 12.16 15.584 12.226 15.884 12.358C16.196 12.49 16.466 12.67 16.694 12.898C16.922 13.126 17.102 13.396 17.234 13.708C17.366 14.008 17.432 14.332 17.432 14.68C17.432 15.028 17.366 15.358 17.234 15.67C17.102 15.97 16.922 16.234 16.694 16.462C16.466 16.678 16.196 16.852 15.884 16.984C15.584 17.104 15.26 17.164 14.912 17.164C14.564 17.164 14.234 17.098 13.922 16.966C13.622 16.834 13.358 16.66 13.13 16.444C12.902 16.216 12.722 15.952 12.59 15.652C12.458 15.352 12.392 15.028 12.392 14.68C12.392 14.332 12.458 14.008 12.59 13.708C12.722 13.396 12.902 13.126 13.13 12.898C13.358 12.67 13.622 12.49 13.922 12.358C14.234 12.226 14.564 12.16 14.912 12.16ZM26.5077 28C26.0637 28 25.8417 27.85 25.8417 27.55C25.8417 27.382 25.8477 27.274 25.8597 27.226C25.8717 27.178 25.8837 27.142 25.8957 27.118L37.0017 1.756C37.0497 1.66 37.1157 1.558 37.1997 1.45C37.2837 1.33 37.4757 1.27 37.7757 1.27H37.9017C38.0697 1.27 38.2017 1.294 38.2977 1.342C38.3937 1.378 38.4657 1.426 38.5137 1.486C38.5617 1.546 38.5917 1.612 38.6037 1.684C38.6277 1.744 38.6517 1.792 38.6757 1.828C39.5397 3.94 40.4337 6.052 41.3577 8.164C42.2937 10.264 43.2297 12.37 44.1657 14.482C45.1017 16.582 46.0317 18.688 46.9557 20.8C47.8917 22.912 48.7917 25.018 49.6557 27.118L49.6377 27.1L49.6737 27.28C49.6857 27.34 49.6977 27.394 49.7097 27.442C49.7217 27.49 49.7277 27.526 49.7277 27.55C49.7277 27.85 49.5117 28 49.0797 28H26.5077ZM30.2337 24.832H45.3357L37.8117 7.066L30.2337 24.832ZM64.7951 1.288C65.9591 1.288 67.0451 1.522 68.0531 1.99C69.0611 2.446 69.9311 3.064 70.6631 3.844C71.4071 4.612 71.9891 5.506 72.4091 6.526C72.8291 7.546 73.0391 8.62 73.0391 9.748C73.0391 10.828 72.8291 11.872 72.4091 12.88C72.0011 13.888 71.4311 14.782 70.6991 15.562C69.9671 16.33 69.1031 16.948 68.1071 17.416C67.1111 17.872 66.0311 18.1 64.8671 18.1H56.6951V27.424C56.6951 27.808 56.5031 28 56.1191 28H54.2111C53.8031 28 53.5991 27.808 53.5991 27.424V15.652C53.5991 15.472 53.6531 15.328 53.7611 15.22C53.8811 15.1 54.0311 15.04 54.2111 15.04H61.1591L53.2751 1.792C53.2031 1.684 53.1671 1.588 53.1671 1.504C53.1671 1.432 53.2091 1.378 53.2931 1.342C53.3771 1.306 53.4671 1.288 53.5631 1.288H64.7951ZM58.6391 4.348L64.9751 15.076C65.6471 15.028 66.2831 14.842 66.8831 14.518C67.4951 14.194 68.0231 13.786 68.4671 13.294C68.9231 12.802 69.2831 12.25 69.5471 11.638C69.8111 11.014 69.9431 10.372 69.9431 9.712C69.9431 9.04 69.8111 8.386 69.5471 7.75C69.2831 7.102 68.9171 6.526 68.4491 6.022C67.9811 5.518 67.4351 5.116 66.8111 4.816C66.1871 4.504 65.5151 4.348 64.7951 4.348H58.6391ZM84.7812 3.592C84.1093 3.676 83.4673 3.898 82.8553 4.258C82.2433 4.618 81.6973 5.068 81.2173 5.608C80.7493 6.148 80.3713 6.76 80.0833 7.444C79.8073 8.116 79.6693 8.8 79.6693 9.496C79.6693 10.084 79.7953 10.618 80.0473 11.098C80.2993 11.578 80.6173 12.052 81.0013 12.52C81.3853 12.976 81.7993 13.45 82.2433 13.942C82.6873 14.434 83.1013 14.98 83.4853 15.58C83.8693 16.168 84.1873 16.84 84.4393 17.596C84.6913 18.34 84.8173 19.204 84.8173 20.188C84.8173 21.352 84.5953 22.432 84.1513 23.428C83.7193 24.412 83.1373 25.276 82.4053 26.02C81.6733 26.752 80.8273 27.34 79.8673 27.784C78.9073 28.228 77.9053 28.48 76.8613 28.54C76.6813 28.54 76.5313 28.486 76.4113 28.378C76.3033 28.27 76.2493 28.096 76.2493 27.856V26.2C76.2493 26.02 76.3033 25.876 76.4113 25.768C76.5313 25.648 76.6813 25.588 76.8613 25.588C77.5213 25.504 78.1513 25.276 78.7513 24.904C79.3513 24.532 79.8793 24.076 80.3353 23.536C80.7913 22.996 81.1513 22.396 81.4153 21.736C81.6913 21.076 81.8293 20.416 81.8293 19.756C81.8293 19.108 81.7033 18.52 81.4513 17.992C81.1993 17.464 80.8813 16.96 80.4973 16.48C80.1133 16 79.6993 15.52 79.2553 15.04C78.8113 14.548 78.3973 14.02 78.0133 13.456C77.6293 12.88 77.3113 12.244 77.0593 11.548C76.8073 10.84 76.6813 10.024 76.6813 9.1C76.6813 7.936 76.9033 6.844 77.3473 5.824C77.7913 4.804 78.3853 3.916 79.1293 3.16C79.8853 2.404 80.7493 1.804 81.7213 1.36C82.6933 0.903998 83.7133 0.651998 84.7812 0.603999C84.9613 0.603999 85.1053 0.657998 85.2133 0.765998C85.3333 0.873998 85.3933 1.048 85.3933 1.288V3.016C85.3933 3.196 85.3333 3.34 85.2133 3.448C85.1053 3.544 84.9613 3.592 84.7812 3.592ZM93.8353 3.592C93.1633 3.676 92.5213 3.898 91.9093 4.258C91.2973 4.618 90.7513 5.068 90.2713 5.608C89.8033 6.148 89.4253 6.76 89.1373 7.444C88.8613 8.116 88.7233 8.8 88.7233 9.496C88.7233 10.084 88.8493 10.618 89.1013 11.098C89.3533 11.578 89.6713 12.052 90.0553 12.52C90.4393 12.976 90.8533 13.45 91.2973 13.942C91.7413 14.434 92.1553 14.98 92.5392 15.58C92.9233 16.168 93.2413 16.84 93.4933 17.596C93.7453 18.34 93.8712 19.204 93.8712 20.188C93.8712 21.352 93.6493 22.432 93.2053 23.428C92.7733 24.412 92.1913 25.276 91.4593 26.02C90.7273 26.752 89.8813 27.34 88.9213 27.784C87.9613 28.228 86.9593 28.48 85.9153 28.54C85.7353 28.54 85.5853 28.486 85.4653 28.378C85.3573 28.27 85.3033 28.096 85.3033 27.856V26.2C85.3033 26.02 85.3573 25.876 85.4653 25.768C85.5853 25.648 85.7353 25.588 85.9153 25.588C86.5753 25.504 87.2053 25.276 87.8053 24.904C88.4053 24.532 88.9333 24.076 89.3893 23.536C89.8453 22.996 90.2053 22.396 90.4693 21.736C90.7453 21.076 90.8833 20.416 90.8833 19.756C90.8833 19.108 90.7573 18.52 90.5053 17.992C90.2533 17.464 89.9353 16.96 89.5513 16.48C89.1673 16 88.7533 15.52 88.3093 15.04C87.8653 14.548 87.4513 14.02 87.0673 13.456C86.6833 12.88 86.3653 12.244 86.1133 11.548C85.8613 10.84 85.7353 10.024 85.7353 9.1C85.7353 7.936 85.9573 6.844 86.4013 5.824C86.8453 4.804 87.4393 3.916 88.1833 3.16C88.9393 2.404 89.8033 1.804 90.7753 1.36C91.7473 0.903998 92.7673 0.651998 93.8353 0.603999C94.0153 0.603999 94.1593 0.657998 94.2673 0.765998C94.3873 0.873998 94.4473 1.048 94.4473 1.288V3.016C94.4473 3.196 94.3873 3.34 94.2673 3.448C94.1593 3.544 94.0153 3.592 93.8353 3.592ZM101.555 16.624H113.507C113.687 16.624 113.825 16.684 113.921 16.804C114.029 16.924 114.083 17.068 114.083 17.236V19.108C114.083 19.324 114.023 19.486 113.903 19.594C113.783 19.702 113.651 19.756 113.507 19.756H101.555V24.904H116.495C116.735 24.904 116.909 24.97 117.017 25.102C117.125 25.222 117.179 25.372 117.179 25.552V27.352C117.179 27.592 117.125 27.76 117.017 27.856C116.909 27.952 116.747 28 116.531 28H99.0353C98.6273 28 98.4233 27.796 98.4233 27.388V1.828C98.4233 1.624 98.4713 1.486 98.5673 1.414C98.6753 1.33 98.8313 1.288 99.0353 1.288H116.639C117.023 1.288 117.215 1.48 117.215 1.864V3.736C117.215 4.168 117.011 4.384 116.603 4.384H101.555V8.884H113.507C113.651 8.884 113.783 8.932 113.903 9.028C114.023 9.124 114.083 9.28 114.083 9.496V11.368C114.083 11.536 114.029 11.686 113.921 11.818C113.825 11.95 113.687 12.016 113.507 12.016H101.555V16.624ZM137.649 24.904C137.793 24.904 137.925 24.958 138.045 25.066C138.165 25.174 138.225 25.336 138.225 25.552V27.424C138.225 27.592 138.171 27.73 138.063 27.838C137.955 27.946 137.817 28 137.649 28H122.097C121.713 28 121.521 27.808 121.521 27.424V1.864C121.521 1.696 121.569 1.558 121.665 1.45C121.773 1.342 121.929 1.288 122.133 1.288H124.005C124.173 1.288 124.311 1.336 124.419 1.432C124.527 1.516 124.581 1.66 124.581 1.864V24.904H137.649Z" fill="#2A7BDD"/>
</svg>
