<svg width="24" height="24" viewBox="0 0 24 24" fill="none" xmlns="http://www.w3.org/2000/svg">
<path d="M12.916 7.33987L5.23602 15.0199C5.15607 15.0998 5.10397 15.2039 5.09205 15.3159L4.66804 18.8799C4.62799 19.1998 4.89599 19.4718 5.21606 19.4398L8.69606 19.0838C8.81204 19.0718 8.91611 19.0198 9.00008 18.9398L16.7559 11.1841C16.9518 10.9881 16.9518 10.6721 16.7559 10.4761L13.6238 7.34812C13.4278 7.15219 13.1118 7.15219 12.9159 7.34812L12.916 7.33987Z" fill="#949FB1"/>
<path d="M19.1226 7.70351L16.1627 4.74356C15.9147 4.49954 15.5148 4.49954 15.2667 4.74356L14.0307 5.97959C13.7867 6.22361 13.7867 6.61563 14.0307 6.85964L16.9906 9.8196C17.2387 10.0636 17.6386 10.0636 17.8866 9.8196L19.1226 8.58356C19.3667 8.33954 19.3667 7.94753 19.1226 7.70351Z" fill="#949FB1"/>
</svg>
