<svg width="24" height="24" viewBox="0 0 24 24" fill="none" xmlns="http://www.w3.org/2000/svg">
<path d="M11.6237 2C10.5623 2 9.69455 2.86369 9.69455 3.9292V4.15116H7.93089C7.70893 4.15116 7.52734 4.32869 7.52734 4.5547V6.4839C7.52734 6.70991 7.70893 6.88744 7.93089 6.88744H15.3129C15.5389 6.88744 15.7164 6.70991 15.7164 6.4839V4.5547C15.7164 4.32869 15.5389 4.15116 15.3129 4.15116H13.5492L13.5491 3.9292C13.5491 2.86365 12.6854 2 11.6239 2H11.6237Z" fill="#949FB1"/>
<path d="M17.8428 5.1115H16.523V6.48377C16.523 7.14962 15.9781 7.69457 15.3122 7.69457H7.93023C7.26437 7.69457 6.71942 7.14962 6.71942 6.48377V5.1115H5.40371C5.1777 5.1115 5.00017 5.29308 5.00017 5.51504L5 21.7761C5 21.9981 5.17753 22.1797 5.40354 22.1797H17.8424C18.0643 22.1797 18.2459 21.9981 18.2459 21.7761L18.2461 5.51504C18.2461 5.29308 18.0645 5.11133 17.8425 5.11133L17.8428 5.1115ZM15.7319 19.5041H7.51483C7.28882 19.5041 7.11129 19.3225 7.11129 19.1005C7.11129 18.8786 7.28882 18.697 7.51483 18.697H15.7323C15.9542 18.697 16.1358 18.8786 16.1358 19.1005C16.1358 19.3225 15.9543 19.5041 15.7321 19.5041H15.7319ZM15.7319 16.6063H7.51483C7.28882 16.6063 7.11129 16.4287 7.11129 16.2027C7.11129 15.9808 7.28882 15.7992 7.51483 15.7992H15.7323C15.9542 15.7992 16.1358 15.9808 16.1358 16.2027C16.1358 16.4286 15.9543 16.6063 15.7321 16.6063H15.7319ZM15.7319 13.7123H7.51483C7.28882 13.7123 7.11129 13.5308 7.11129 13.3088C7.11129 13.0828 7.28882 12.9053 7.51483 12.9053H15.7323C15.9542 12.9053 16.1358 13.0828 16.1358 13.3088C16.1358 13.5308 15.9543 13.7123 15.7321 13.7123H15.7319ZM15.7319 10.8146H7.51483C7.28882 10.8146 7.11129 10.633 7.11129 10.411C7.11129 10.1891 7.28882 10.0075 7.51483 10.0075H15.7323C15.9542 10.0075 16.1358 10.1891 16.1358 10.411C16.1358 10.633 15.9543 10.8146 15.7321 10.8146H15.7319Z" fill="#949FB1"/>
</svg>
