<svg width="14" height="14" viewBox="0 0 14 14" fill="none" xmlns="http://www.w3.org/2000/svg">
<path d="M6.99121 13.873C8.81634 13.873 10.5668 13.148 11.8574 11.8574C13.148 10.5668 13.8731 8.81641 13.8731 6.99121C13.8731 5.16601 13.148 3.41564 11.8574 2.12504C10.5668 0.834415 8.81641 0.109375 6.99121 0.109375C5.16601 0.109375 3.41564 0.834389 2.12504 2.12504C0.834415 3.41559 0.109375 5.16601 0.109375 6.99121C0.111685 8.81561 0.837501 10.5647 2.12753 11.8548C3.41767 13.1448 5.16671 13.8707 6.99114 13.873L6.99121 13.873ZM6.99121 1.45305C8.45955 1.45305 9.86787 2.03635 10.9062 3.07457C11.9446 4.11278 12.528 5.52095 12.5281 6.98931C12.5282 8.45765 11.9451 9.86597 10.9069 10.9043C9.8688 11.9427 8.46063 12.5262 6.99242 12.5265C5.52401 12.5267 4.11551 11.9437 3.07716 10.9056C2.03864 9.86761 1.45505 8.45945 1.45464 6.99113C1.45615 5.52311 2.04006 4.11576 3.07806 3.07768C4.11607 2.03959 5.52344 1.45577 6.99152 1.45426L6.99121 1.45305ZM7.61759 10.3638C7.61759 10.5525 7.54265 10.7335 7.40926 10.8668C7.27587 11.0002 7.09485 11.0752 6.90624 11.0752C6.7176 11.0752 6.5367 11.0002 6.40321 10.8668C6.26982 10.7335 6.19489 10.5524 6.19489 10.3638C6.19489 10.1752 6.26982 9.99418 6.40321 9.8608C6.53671 9.7274 6.71762 9.65247 6.90624 9.65247C7.09518 9.65247 7.27629 9.72761 7.40977 9.8613C7.54326 9.99499 7.618 10.1764 7.6176 10.3652L7.61759 10.3638ZM4.68719 4.81982C4.62501 4.64303 4.63586 4.44866 4.71742 4.27982C4.91209 3.87119 5.21795 3.52567 5.60004 3.28298C5.98213 3.0402 6.4248 2.91012 6.87742 2.9075H6.89189C7.52348 2.91001 8.1297 3.15661 8.58371 3.59567C9.03782 4.03461 9.30461 4.63218 9.32831 5.26337C9.34449 5.78128 9.19342 6.29063 8.8975 6.71591C8.60158 7.14131 8.1765 7.46003 7.6853 7.62497C7.6853 7.62497 7.61479 7.64947 7.61479 7.69116V8.25567H7.61469C7.61469 8.50849 7.47989 8.74213 7.26081 8.86859C7.04183 8.99505 6.77203 8.99505 6.55307 8.86859C6.3341 8.74213 6.19919 8.50849 6.19919 8.25567V7.69116C6.20241 7.37837 6.30356 7.07433 6.48848 6.82199C6.6735 6.56957 6.93285 6.38153 7.23028 6.28431C7.43499 6.2149 7.61199 6.0816 7.73513 5.90402C7.85828 5.72643 7.92106 5.51388 7.91423 5.29793C7.90036 5.03637 7.78766 4.78987 7.59892 4.60838C7.41018 4.42687 7.15946 4.32382 6.89761 4.3202C6.70867 4.32221 6.52416 4.37725 6.36504 4.4791C6.20594 4.58096 6.07856 4.7255 5.99761 4.89616C5.91705 5.06763 5.77111 5.19951 5.59241 5.26239C5.41371 5.32527 5.21734 5.31382 5.04719 5.23064C4.87703 5.14747 4.74736 4.99952 4.68719 4.81981V4.81982Z" fill="#949FB1"/>
</svg>
