<svg width="24" height="24" viewBox="0 0 24 24" fill="none" xmlns="http://www.w3.org/2000/svg">
<path d="M7.41393 16.5896C6.8379 16.0135 6.3772 15.3416 6.05066 14.6504C6.01222 14.6888 5.95463 14.7271 5.9162 14.7849C4.4186 16.2825 4.24583 18.6441 4.22656 19.4697C4.22656 19.6424 4.36103 19.7769 4.53379 19.7769C5.35932 19.7577 7.72103 19.5848 9.21859 18.0873C9.25703 18.0488 9.29533 18.0105 9.35306 17.9528C8.66186 17.6263 7.98993 17.1656 7.41389 16.5895L7.41393 16.5896Z" fill="#949FB1"/>
<path d="M17.1668 15.2072L16.9941 14.7464C17.0516 14.6888 17.1285 14.6312 17.1861 14.5736C20.6997 11.06 21.1029 5.53042 21.1221 3.59122C21.1221 3.18796 20.8149 2.88086 20.4117 2.88086C18.4725 2.90001 12.9429 3.30326 9.42934 6.81686C9.37175 6.87445 9.31417 6.95132 9.25658 7.00891L8.79574 6.83615C7.54781 6.35615 6.12694 6.66338 5.18614 7.64255L2.97821 9.94637C2.80544 10.1384 2.86303 10.4264 3.11267 10.5224L6.81827 11.9432C6.77984 14.8041 9.19901 17.2232 12.0599 17.1848L13.4999 20.8904C13.5959 21.1208 13.8838 21.1977 14.0759 21.0249L16.3799 18.817C17.3399 17.8761 17.6471 16.4554 17.1671 15.2074L17.1668 15.2072ZM17.2053 6.79763C17.7044 7.29679 17.7044 8.10316 17.2053 8.60246C16.7061 9.10163 15.8997 9.10163 15.4004 8.60246C14.9013 8.1033 14.9013 7.29693 15.4004 6.79763C15.8996 6.29846 16.706 6.29846 17.2053 6.79763ZM11.5605 12.4424C10.8693 11.7512 10.8693 10.5992 11.5605 9.90796C12.2517 9.21676 13.4037 9.21676 14.0949 9.90796C14.7861 10.5992 14.7861 11.7512 14.0949 12.4424C13.4036 13.1336 12.2708 13.1336 11.5605 12.4424V12.4424Z" fill="#949FB1"/>
</svg>
