<svg width="24" height="24" viewBox="0 0 24 24" fill="none" xmlns="http://www.w3.org/2000/svg">
<path fill-rule="evenodd" clip-rule="evenodd" d="M20.5292 2.40176C20.4885 2.39976 20.4475 2.39989 20.4062 2.40257C20.2963 2.4094 20.1848 2.43284 20.0758 2.47529L3.21515 9.03209C2.68828 9.237 2.39551 9.74753 2.39846 10.2344C2.40141 10.721 2.70047 11.2276 3.22989 11.4261L9.61492 13.8206C9.87541 13.9183 10.0804 14.1232 10.1782 14.3839L12.5726 20.7689C12.7711 21.2982 13.2776 21.5974 13.7643 21.6003C14.251 21.6033 14.7617 21.3105 14.9666 20.7837L21.5234 3.92263C21.6929 3.48669 21.5605 3.01539 21.2717 2.72678C21.0823 2.53727 20.8144 2.41526 20.5292 2.4016L20.5292 2.40176ZM17.1201 6.39879C17.2474 6.39893 17.3694 6.44942 17.4595 6.53942C17.6469 6.72692 17.6469 7.0308 17.4595 7.21817L12.9774 11.6997V11.6998C12.7898 11.8872 12.4861 11.8872 12.2986 11.6998C12.1112 11.5123 12.1112 11.2084 12.2986 11.0209L16.7801 6.53942C16.8701 6.44942 16.9924 6.39879 17.1199 6.39879L17.1201 6.39879Z" fill="#949FB1"/>
</svg>
