<svg width="19" height="12" viewBox="0 0 19 12" fill="none" xmlns="http://www.w3.org/2000/svg">
<path d="M2.32772 0.844204L0.516004 0.844204C0.358972 0.844204 0.272254 1.02467 0.368347 1.14655L8.62069 11.7122C8.6905 11.8019 8.7799 11.8746 8.88205 11.9245C8.98421 11.9745 9.09643 12.0005 9.21014 12.0005C9.32386 12.0005 9.43608 11.9745 9.53824 11.9245C9.64039 11.8746 9.72979 11.8019 9.7996 11.7122L18.0519 1.14655C18.148 1.02233 18.0613 0.844203 17.9043 0.844203L16.0926 0.844203C15.9777 0.844203 15.8676 0.898109 15.7973 0.987171L9.21132 9.42467L2.62303 0.987172C2.55272 0.898109 2.44257 0.844204 2.32772 0.844204Z" fill="#949FB1"/>
</svg>
