<svg width="20" height="16" viewBox="0 0 20 16" fill="none" xmlns="http://www.w3.org/2000/svg">
<path d="M0.835952 15.3334L15.0026 15.3334C15.4634 15.3334 15.8359 14.9601 15.8359 14.5L15.8359 13.6666C15.8359 13.2066 15.4634 12.8333 15.0026 12.8333L0.835952 12.8333C0.375122 12.8333 0.00257939 13.2066 0.00257938 13.6666L0.00257935 14.5C0.00257934 14.9601 0.375122 15.3334 0.835952 15.3334V15.3334Z" fill="#949FB1"/>
<path d="M0.835952 11.1667L15.0026 11.1667C15.4634 11.1667 15.8359 10.7934 15.8359 10.3334L15.8359 9.5C15.8359 9.03994 15.4634 8.66663 15.0026 8.66663L0.835952 8.66663C0.375122 8.66663 0.00257939 9.03994 0.00257938 9.5L0.00257935 10.3334C0.00257934 10.7934 0.375122 11.1667 0.835952 11.1667Z" fill="#949FB1"/>
<path d="M0.835952 7L15.0026 7C15.4634 7 15.8359 6.62668 15.8359 6.16663L15.8359 5.33325C15.8359 4.87319 15.4634 4.49988 15.0026 4.49988L0.835952 4.49988C0.375122 4.49988 0.00257939 4.87319 0.00257938 5.33325L0.00257935 6.16663C0.00257934 6.62668 0.375122 7 0.835952 7Z" fill="#949FB1"/>
<path d="M0.835952 2.83337L15.0026 2.83337C15.4634 2.83337 15.8359 2.46006 15.8359 2L15.8359 1.16663C15.8359 0.706568 15.4634 0.333254 15.0026 0.333254L0.835952 0.333253C0.375122 0.333253 0.00257939 0.706568 0.00257938 1.16663L0.00257935 2C0.00257934 2.46006 0.375122 2.83337 0.835952 2.83337Z" fill="#949FB1"/>
<path d="M19.1666 12.8332L18.3333 12.8332C17.8724 12.8332 17.4999 13.2066 17.4999 13.6666L17.5 14.4999C17.5 14.9599 17.8725 15.3333 18.3334 15.3333L19.1666 15.3333C19.6275 15.3333 20 14.9599 20 14.4999L20 13.6665C20 13.2066 19.6275 12.8332 19.1666 12.8332L19.1666 12.8332Z" fill="#949FB1"/>
<path d="M19.1666 8.66674L18.3333 8.66674C17.8724 8.66674 17.4999 9.04006 17.4999 9.50011L17.5 10.3334C17.5 10.7934 17.8725 11.1667 18.3334 11.1667L19.1666 11.1667C19.6275 11.1667 20 10.7934 20 10.3334L20 9.5C20 9.04006 19.6275 8.66674 19.1666 8.66674L19.1666 8.66674Z" fill="#949FB1"/>
<path d="M19.1666 4.49988L18.3333 4.49988C17.8724 4.49988 17.4999 4.87319 17.4999 5.33325L17.4999 6.16663C17.4999 6.62668 17.8724 7 18.3333 7L19.1666 6.99989C19.6275 6.99989 20 6.62657 20 6.16651L20 5.33314C20 4.8732 19.6275 4.49988 19.1666 4.49988L19.1666 4.49988Z" fill="#949FB1"/>
<path d="M19.1666 0.333253L18.3333 0.333253C17.8724 0.333253 17.4999 0.706569 17.4999 1.16663L17.4999 2C17.4999 2.46006 17.8724 2.83337 18.3333 2.83337L19.1666 2.83326C19.6275 2.83326 20 2.45995 20 1.99989L20 1.16652C20 0.706572 19.6275 0.333256 19.1666 0.333256L19.1666 0.333253Z" fill="#949FB1"/>
</svg>
